<svg xmlns="http://www.w3.org/2000/svg" height="800" width="1200" version="1.0" viewBox="-14.709615 -11.98125 127.48333 71.8875"><defs><clipPath id="a"><path d="M0 841.89h1785.827V0H0z"/></clipPath></defs><g clip-path="url(#a)" transform="matrix(1.25 0 0 -1.25 -1155.7275 543.7908)"><path d="M924.582 415.8627h19.169v-19.17h-19.169z" fill="#f7a30a" fill-rule="evenodd"/><path d="M943.751 435.0327h19.17v-19.169h-19.17z" fill="#005ec4" fill-rule="evenodd"/><path d="M942.4095 435.0324h1.342v-19.169h-19.169v1.341h17.827zm1.3418-19.1694h19.17v-1.342h-17.827v-17.828h-1.343v17.828z" fill="#231f20"/><path d="M956.972 409.0544h-.851c-.916-1.695-1.841-3.4-2.767-5.196-.832 1.796-1.674 3.501-2.516 5.196h-.972v-6.381h.748v5.195h.019c.252-.837 1.608-3.564 2.42-5.195h.366c.879 1.631 2.365 4.448 2.627 5.195h.019v-5.195h.907zm4.5322-5.9629c-1.691 0-2.271 1.523-2.271 2.771 0 1.196.654 2.553 2.271 2.553 1.618 0 2.272-1.357 2.272-2.553 0-1.248-.579-2.771-2.272-2.771m0-.637c2.021 0 3.273 1.504 3.273 3.408 0 1.788-1.383 3.192-3.273 3.192-1.889 0-3.271-1.404-3.271-3.192 0-1.904 1.251-3.408 3.271-3.408m19.9776 6.5969l-4.021.003v-6.385h4.426v.639l-3.511.002v2.052h3.058v.637h-3.058v2.414h3.106zm7.1982 0h-.752v-5.087h-.019c-.444.638-2.876 3.428-4.329 5.087h-.679v-6.382h.755v5.078h.018c.397-.555 2.858-3.418 4.29-5.078h.716zm5.9082-3.5732v-2.16c-.367-.174-.783-.229-1.339-.229-1.432 0-2.573 1.084-2.573 2.699 0 1.495.961 2.626 2.677 2.626.725 0 1.329-.247 1.725-.511l.377.528c-.396.319-1.15.62-2.111.62-2.377 0-3.678-1.668-3.678-3.282 0-1.75 1.207-3.318 3.555-3.318.839 0 1.64.21 2.282.428v2.599zm3.2888 3.5735h-.914v-6.382h.914zm1.4983-6.3821h3.658v.639h-2.744v5.743h-.914zm-31.3632.0039v5.742l2.139.001v.638h-5.297v-.639h2.203v-5.742z" fill="#636466" fill-rule="evenodd"/><path d="M972.3656 409.0544l-2.607-6.381h.974l.945 2.689.225.639.671 1.91 1.987-5.238h1.102l-2.568 6.381z" fill="#636466"/><path d="M972.2015 405.362h4.695V406h-4.466z" fill="#636466" fill-rule="evenodd"/></g></svg>